<mxfile host="app.diagrams.net" agent="Mozilla/5.0 (Windows NT 10.0; Win64; x64) AppleWebKit/537.36 (KHTML, like Gecko) Chrome/131.0.0.0 Safari/537.36" version="25.0.1">
  <diagram name="Page-1" id="e7e014a7-5840-1c2e-5031-d8a46d1fe8dd">
    <mxGraphModel dx="2521" dy="1616" grid="1" gridSize="10" guides="1" tooltips="1" connect="1" arrows="1" fold="1" page="1" pageScale="1" pageWidth="1169" pageHeight="826" background="none" math="0" shadow="0">
      <root>
        <mxCell id="0" />
        <mxCell id="1" parent="0" />
        <mxCell id="2" value="TÃ¢che Synchronisation" style="swimlane;whiteSpace=wrap" parent="1" vertex="1">
          <mxGeometry x="-190" y="128" width="484.5" height="632" as="geometry" />
        </mxCell>
        <mxCell id="5" value="" style="ellipse;shape=startState;fillColor=#000000;strokeColor=#ff0000;" parent="2" vertex="1">
          <mxGeometry x="100" y="40" width="30" height="30" as="geometry" />
        </mxCell>
        <mxCell id="6" value="" style="edgeStyle=elbowEdgeStyle;elbow=horizontal;verticalAlign=bottom;endArrow=open;endSize=8;strokeColor=#FF0000;endFill=1;rounded=0" parent="2" source="5" target="7" edge="1">
          <mxGeometry x="100" y="40" as="geometry">
            <mxPoint x="115" y="110" as="targetPoint" />
          </mxGeometry>
        </mxCell>
        <mxCell id="7" value="idle" style="" parent="2" vertex="1">
          <mxGeometry x="60" y="110" width="110" height="50" as="geometry" />
        </mxCell>
        <mxCell id="8" value="user action" style="" parent="2" vertex="1">
          <mxGeometry x="60" y="220" width="110" height="50" as="geometry" />
        </mxCell>
        <mxCell id="9" value="" style="endArrow=open;strokeColor=#FF0000;endFill=1;rounded=0" parent="2" source="7" target="8" edge="1">
          <mxGeometry relative="1" as="geometry" />
        </mxCell>
        <mxCell id="10" value="post command" style="" parent="2" vertex="1">
          <mxGeometry x="60" y="325" width="110" height="50" as="geometry" />
        </mxCell>
        <mxCell id="11" value="" style="endArrow=open;strokeColor=#FF0000;endFill=1;rounded=0" parent="2" source="8" target="10" edge="1">
          <mxGeometry relative="1" as="geometry" />
        </mxCell>
        <mxCell id="14" value="" style="edgeStyle=elbowEdgeStyle;elbow=horizontal;verticalAlign=bottom;endArrow=open;endSize=8;strokeColor=#FF0000;endFill=1;rounded=0" parent="2" target="15" edge="1">
          <mxGeometry x="-400" y="20" as="geometry">
            <mxPoint x="255" y="112" as="targetPoint" />
            <mxPoint x="275" y="92" as="sourcePoint" />
          </mxGeometry>
        </mxCell>
        <mxCell id="15" value="idle" style="" parent="2" vertex="1">
          <mxGeometry x="220" y="132" width="110" height="50" as="geometry" />
        </mxCell>
        <mxCell id="16" value="check for &#xa;new commands" style="" parent="2" vertex="1">
          <mxGeometry x="220" y="242" width="110" height="50" as="geometry" />
        </mxCell>
        <mxCell id="17" value="" style="endArrow=open;strokeColor=#FF0000;endFill=1;rounded=0" parent="2" source="15" target="16" edge="1">
          <mxGeometry relative="1" as="geometry" />
        </mxCell>
        <mxCell id="18" value="command queue" style="" parent="2" vertex="1">
          <mxGeometry x="220" y="347" width="110" height="50" as="geometry" />
        </mxCell>
        <mxCell id="19" value="" style="endArrow=open;strokeColor=#FF0000;endFill=1;rounded=0" parent="2" source="16" target="18" edge="1">
          <mxGeometry relative="1" as="geometry" />
        </mxCell>
        <mxCell id="21" value="queue empty" style="rhombus;fillColor=#ffffc0;strokeColor=#ff0000;" parent="2" vertex="1">
          <mxGeometry x="350" y="247" width="80" height="40" as="geometry" />
        </mxCell>
        <mxCell id="22" value="yes" style="edgeStyle=elbowEdgeStyle;elbow=horizontal;align=left;verticalAlign=bottom;endArrow=open;endSize=8;strokeColor=#FF0000;exitX=0.5;exitY=0;endFill=1;rounded=0;entryX=0.75;entryY=0.5;entryPerimeter=0" parent="2" source="21" target="25" edge="1">
          <mxGeometry x="-1" relative="1" as="geometry">
            <mxPoint x="360" y="172" as="targetPoint" />
            <Array as="points">
              <mxPoint x="390" y="202" />
            </Array>
            <mxPoint as="offset" />
          </mxGeometry>
        </mxCell>
        <mxCell id="23" value="no" style="edgeStyle=elbowEdgeStyle;elbow=horizontal;align=left;verticalAlign=top;endArrow=open;endSize=8;strokeColor=#FF0000;endFill=1;rounded=0" parent="2" source="21" target="30" edge="1">
          <mxGeometry x="-1" relative="1" as="geometry">
            <mxPoint x="390" y="327" as="targetPoint" />
          </mxGeometry>
        </mxCell>
        <mxCell id="24" value="" style="endArrow=open;strokeColor=#FF0000;endFill=1;rounded=0" parent="2" source="16" target="21" edge="1">
          <mxGeometry relative="1" as="geometry" />
        </mxCell>
        <mxCell id="25" value="" style="shape=line;strokeWidth=6;strokeColor=#ff0000;rotation=90" parent="2" vertex="1">
          <mxGeometry x="330" y="149.5" width="50" height="15" as="geometry" />
        </mxCell>
        <mxCell id="26" value="" style="edgeStyle=elbowEdgeStyle;elbow=horizontal;verticalAlign=bottom;endArrow=open;endSize=8;strokeColor=#FF0000;endFill=1;rounded=0" parent="2" source="25" target="15" edge="1">
          <mxGeometry x="-310" y="90" as="geometry">
            <mxPoint x="430" y="162" as="targetPoint" />
          </mxGeometry>
        </mxCell>
        <mxCell id="30" value="dispatch&#xa;command&#xa;worker thread" style="" parent="2" vertex="1">
          <mxGeometry x="340" y="347" width="110" height="50" as="geometry" />
        </mxCell>
        <mxCell id="31" value="critical&#xa;section" style="shape=note;whiteSpace=wrap;size=17" parent="2" vertex="1">
          <mxGeometry x="305" y="512" width="100" height="50" as="geometry" />
        </mxCell>
        <mxCell id="32" value="" style="endArrow=none;strokeColor=#FF0000;endFill=0;rounded=0;dashed=1" parent="2" source="18" target="31" edge="1">
          <mxGeometry relative="1" as="geometry" />
        </mxCell>
        <mxCell id="34" value="" style="whiteSpace=wrap;strokeColor=#FF0000;fillColor=#FF0000" parent="2" vertex="1">
          <mxGeometry x="445" y="417" width="5" height="45" as="geometry" />
        </mxCell>
        <mxCell id="41" value="" style="edgeStyle=elbowEdgeStyle;elbow=horizontal;entryX=0;entryY=0.5;strokeColor=#FF0000;endArrow=open;endFill=1;rounded=0" parent="2" source="30" target="34" edge="1">
          <mxGeometry width="100" height="100" relative="1" as="geometry">
            <mxPoint x="260" y="502" as="sourcePoint" />
            <mxPoint x="360" y="402" as="targetPoint" />
            <Array as="points">
              <mxPoint x="395" y="422" />
            </Array>
          </mxGeometry>
        </mxCell>
        <mxCell id="20" value="" style="endArrow=open;strokeColor=#FF0000;endFill=1;rounded=0" parent="2" source="10" target="18" edge="1">
          <mxGeometry relative="1" as="geometry" />
        </mxCell>
        <mxCell id="3" value="l" style="swimlane;whiteSpace=wrap;points=[[0,0,0,0,0],[0,0.25,0,0,0],[0,0.5,0,0,0],[0,0.75,0,0,0],[0,1,0,0,0],[0.25,0,0,0,0],[0.25,1,0,0,0],[0.5,0,0,0,0],[0.5,1,0,0,0],[0.75,0,0,0,0],[0.75,1,0,0,0],[1,0,0,0,0],[1,0.25,0,0,0],[1,0.5,0,0,0],[1,0.75,0,0,0],[1,1,0,0,0]];" parent="1" vertex="1">
          <mxGeometry x="-630" y="128" width="394.5" height="632" as="geometry" />
        </mxCell>
        <mxCell id="13" value="" style="ellipse;shape=startState;fillColor=#000000;strokeColor=#ff0000;" parent="3" vertex="1">
          <mxGeometry x="160" y="40" width="30" height="30" as="geometry" />
        </mxCell>
        <mxCell id="12" value="" style="edgeStyle=elbowEdgeStyle;elbow=horizontal;strokeColor=#FF0000;endArrow=open;endFill=1;rounded=0;exitX=0.467;exitY=0.763;exitDx=0;exitDy=0;exitPerimeter=0;entryX=0.5;entryY=0;entryDx=0;entryDy=0;" parent="3" source="13" target="S2UzXBr5Zmkb8bIeER8B-59" edge="1">
          <mxGeometry width="100" height="100" relative="1" as="geometry">
            <mxPoint x="150" y="322" as="sourcePoint" />
            <mxPoint x="174" y="152" as="targetPoint" />
            <Array as="points">
              <mxPoint x="174" y="112" />
            </Array>
          </mxGeometry>
        </mxCell>
        <mxCell id="S2UzXBr5Zmkb8bIeER8B-57" value="Get Info" style="" vertex="1" parent="3">
          <mxGeometry x="120" y="192" width="110" height="50" as="geometry" />
        </mxCell>
        <mxCell id="S2UzXBr5Zmkb8bIeER8B-58" value="Lidar Ok ?" style="rhombus;fillColor=#ffffc0;strokeColor=#ff0000;" vertex="1" parent="3">
          <mxGeometry x="135" y="265" width="80" height="40" as="geometry" />
        </mxCell>
        <mxCell id="S2UzXBr5Zmkb8bIeER8B-59" value="idle" style="" vertex="1" parent="3">
          <mxGeometry x="120" y="112" width="110" height="50" as="geometry" />
        </mxCell>
        <mxCell id="S2UzXBr5Zmkb8bIeER8B-60" value="NO" style="edgeStyle=elbowEdgeStyle;elbow=horizontal;align=left;verticalAlign=bottom;endArrow=open;endSize=8;strokeColor=#FF0000;exitX=1;exitY=0.5;endFill=1;rounded=0;entryX=1;entryY=0.5;entryDx=0;entryDy=0;exitDx=0;exitDy=0;" edge="1" parent="3" source="S2UzXBr5Zmkb8bIeER8B-58" target="S2UzXBr5Zmkb8bIeER8B-57">
          <mxGeometry x="-1" relative="1" as="geometry">
            <mxPoint x="250" y="228" as="targetPoint" />
            <Array as="points">
              <mxPoint x="285" y="260" />
            </Array>
            <mxPoint x="285" y="305" as="sourcePoint" />
          </mxGeometry>
        </mxCell>
        <mxCell id="S2UzXBr5Zmkb8bIeER8B-61" value="YES" style="edgeStyle=elbowEdgeStyle;elbow=horizontal;align=left;verticalAlign=bottom;endArrow=open;endSize=8;strokeColor=#FF0000;exitX=0.5;exitY=1;endFill=1;rounded=0;exitDx=0;exitDy=0;entryX=0.5;entryY=0;entryDx=0;entryDy=0;" edge="1" parent="3" target="S2UzXBr5Zmkb8bIeER8B-62">
          <mxGeometry x="-0.6025" y="25" relative="1" as="geometry">
            <mxPoint x="174" y="362" as="targetPoint" />
            <Array as="points" />
            <mxPoint x="176" y="304.9999999999998" as="sourcePoint" />
            <mxPoint as="offset" />
          </mxGeometry>
        </mxCell>
        <mxCell id="S2UzXBr5Zmkb8bIeER8B-62" value="Start Scanning" style="" vertex="1" parent="3">
          <mxGeometry x="120" y="342" width="110" height="50" as="geometry" />
        </mxCell>
        <mxCell id="S2UzXBr5Zmkb8bIeER8B-64" value="Parse Data" style="" vertex="1" parent="3">
          <mxGeometry x="120" y="412" width="110" height="50" as="geometry" />
        </mxCell>
        <mxCell id="S2UzXBr5Zmkb8bIeER8B-65" value="" style="edgeStyle=elbowEdgeStyle;elbow=horizontal;align=left;verticalAlign=bottom;endArrow=open;endSize=8;strokeColor=#FF0000;exitX=0.5;exitY=1;endFill=1;rounded=0;exitDx=0;exitDy=0;entryX=0.5;entryY=0;entryDx=0;entryDy=0;" edge="1" parent="3" source="S2UzXBr5Zmkb8bIeER8B-62" target="S2UzXBr5Zmkb8bIeER8B-64">
          <mxGeometry x="-0.6025" y="25" relative="1" as="geometry">
            <mxPoint x="185" y="352" as="targetPoint" />
            <Array as="points" />
            <mxPoint x="186" y="314.9999999999998" as="sourcePoint" />
            <mxPoint as="offset" />
          </mxGeometry>
        </mxCell>
        <mxCell id="S2UzXBr5Zmkb8bIeER8B-66" value="DMA fetchingÂ &#xa;Lidar DATA" style="" vertex="1" parent="3">
          <mxGeometry x="-9" y="412" width="110" height="50" as="geometry" />
        </mxCell>
        <mxCell id="S2UzXBr5Zmkb8bIeER8B-68" value="" style="edgeStyle=elbowEdgeStyle;elbow=horizontal;align=left;verticalAlign=bottom;endArrow=open;endSize=8;strokeColor=#FF0000;exitX=0;exitY=0.5;endFill=1;rounded=0;exitDx=0;exitDy=0;entryX=0.5;entryY=0;entryDx=0;entryDy=0;" edge="1" parent="3" source="S2UzXBr5Zmkb8bIeER8B-62" target="S2UzXBr5Zmkb8bIeER8B-66">
          <mxGeometry x="-0.6025" y="25" relative="1" as="geometry">
            <mxPoint x="30" y="362" as="targetPoint" />
            <Array as="points">
              <mxPoint x="46" y="367" />
            </Array>
            <mxPoint x="186" y="314.9999999999998" as="sourcePoint" />
            <mxPoint as="offset" />
          </mxGeometry>
        </mxCell>
        <mxCell id="S2UzXBr5Zmkb8bIeER8B-69" value="" style="edgeStyle=elbowEdgeStyle;elbow=horizontal;align=left;verticalAlign=bottom;endArrow=open;endSize=8;strokeColor=#FF0000;exitX=1;exitY=0.5;endFill=1;rounded=0;exitDx=0;exitDy=0;entryX=0;entryY=0.5;entryDx=0;entryDy=0;" edge="1" parent="3" source="S2UzXBr5Zmkb8bIeER8B-66" target="S2UzXBr5Zmkb8bIeER8B-64">
          <mxGeometry x="-0.6025" y="25" relative="1" as="geometry">
            <mxPoint x="56" y="422" as="targetPoint" />
            <Array as="points">
              <mxPoint x="110" y="432" />
            </Array>
            <mxPoint x="130" y="377" as="sourcePoint" />
            <mxPoint as="offset" />
          </mxGeometry>
        </mxCell>
        <mxCell id="4" value="TÃ¢che Capteur Distance" style="swimlane;whiteSpace=wrap" parent="1" vertex="1">
          <mxGeometry x="-210" y="-220" width="540" height="282" as="geometry" />
        </mxCell>
        <mxCell id="33" value="process&#xa;command" style="" parent="4" vertex="1">
          <mxGeometry x="90" y="405" width="110" height="50" as="geometry" />
        </mxCell>
        <mxCell id="35" value="" style="edgeStyle=elbowEdgeStyle;elbow=horizontal;strokeColor=#FF0000;endArrow=open;endFill=1;rounded=0;entryX=0.25;entryY=0.5;entryPerimeter=0" parent="4" target="25" edge="1">
          <mxGeometry width="100" height="100" relative="1" as="geometry">
            <mxPoint x="-30" y="410" as="sourcePoint" />
            <mxPoint x="-120" y="120" as="targetPoint" />
            <Array as="points">
              <mxPoint x="-10" y="135" />
            </Array>
          </mxGeometry>
        </mxCell>
        <mxCell id="37" value="" style="edgeStyle=none;strokeColor=#FF0000;endArrow=open;endFill=1;rounded=0" parent="4" target="33" edge="1">
          <mxGeometry width="100" height="100" relative="1" as="geometry">
            <mxPoint x="-30" y="429.5" as="sourcePoint" />
            <mxPoint x="90" y="429.5" as="targetPoint" />
          </mxGeometry>
        </mxCell>
        <mxCell id="38" value="" style="ellipse;shape=endState;fillColor=#000000;strokeColor=#ff0000" parent="4" vertex="1">
          <mxGeometry x="130" y="500" width="30" height="30" as="geometry" />
        </mxCell>
        <mxCell id="39" value="" style="endArrow=open;strokeColor=#FF0000;endFill=1;rounded=0" parent="4" source="33" target="38" edge="1">
          <mxGeometry relative="1" as="geometry" />
        </mxCell>
        <mxCell id="S2UzXBr5Zmkb8bIeER8B-41" value="TÃ¢che Moteur" style="swimlane;whiteSpace=wrap" vertex="1" parent="1">
          <mxGeometry x="400" y="128" width="274.5" height="632" as="geometry" />
        </mxCell>
        <mxCell id="S2UzXBr5Zmkb8bIeER8B-42" value="process&#xa;command" style="" vertex="1" parent="S2UzXBr5Zmkb8bIeER8B-41">
          <mxGeometry x="90" y="405" width="110" height="50" as="geometry" />
        </mxCell>
        <mxCell id="S2UzXBr5Zmkb8bIeER8B-43" value="" style="edgeStyle=elbowEdgeStyle;elbow=horizontal;strokeColor=#FF0000;endArrow=open;endFill=1;rounded=0;entryX=0.25;entryY=0.5;entryPerimeter=0" edge="1" parent="S2UzXBr5Zmkb8bIeER8B-41">
          <mxGeometry width="100" height="100" relative="1" as="geometry">
            <mxPoint x="-30" y="410" as="sourcePoint" />
            <mxPoint x="-120" y="120" as="targetPoint" />
            <Array as="points">
              <mxPoint x="-10" y="135" />
            </Array>
          </mxGeometry>
        </mxCell>
        <mxCell id="S2UzXBr5Zmkb8bIeER8B-44" value="" style="edgeStyle=none;strokeColor=#FF0000;endArrow=open;endFill=1;rounded=0" edge="1" parent="S2UzXBr5Zmkb8bIeER8B-41" target="S2UzXBr5Zmkb8bIeER8B-42">
          <mxGeometry width="100" height="100" relative="1" as="geometry">
            <mxPoint x="-30" y="429.5" as="sourcePoint" />
            <mxPoint x="90" y="429.5" as="targetPoint" />
          </mxGeometry>
        </mxCell>
        <mxCell id="S2UzXBr5Zmkb8bIeER8B-45" value="" style="ellipse;shape=endState;fillColor=#000000;strokeColor=#ff0000" vertex="1" parent="S2UzXBr5Zmkb8bIeER8B-41">
          <mxGeometry x="130" y="500" width="30" height="30" as="geometry" />
        </mxCell>
        <mxCell id="S2UzXBr5Zmkb8bIeER8B-46" value="" style="endArrow=open;strokeColor=#FF0000;endFill=1;rounded=0" edge="1" parent="S2UzXBr5Zmkb8bIeER8B-41" source="S2UzXBr5Zmkb8bIeER8B-42" target="S2UzXBr5Zmkb8bIeER8B-45">
          <mxGeometry relative="1" as="geometry" />
        </mxCell>
        <mxCell id="S2UzXBr5Zmkb8bIeER8B-47" value="TÃ¢che Shell (Optionnel)" style="swimlane;whiteSpace=wrap" vertex="1" parent="1">
          <mxGeometry x="-280" y="790" width="680" height="240" as="geometry" />
        </mxCell>
        <mxCell id="S2UzXBr5Zmkb8bIeER8B-77" value="" style="endArrow=none;html=1;rounded=0;exitX=0.5;exitY=1;exitDx=0;exitDy=0;" edge="1" parent="1" source="S2UzXBr5Zmkb8bIeER8B-66">
          <mxGeometry width="50" height="50" relative="1" as="geometry">
            <mxPoint x="-350" y="600" as="sourcePoint" />
            <mxPoint x="-584" y="630" as="targetPoint" />
          </mxGeometry>
        </mxCell>
        <mxCell id="S2UzXBr5Zmkb8bIeER8B-78" value="" style="edgeStyle=elbowEdgeStyle;elbow=horizontal;align=left;verticalAlign=bottom;endArrow=open;endSize=8;strokeColor=#FF0000;endFill=1;rounded=0;entryX=0;entryY=0.5;entryDx=0;entryDy=0;" edge="1" parent="1" target="S2UzXBr5Zmkb8bIeER8B-66">
          <mxGeometry x="-0.6025" y="25" relative="1" as="geometry">
            <mxPoint x="-574" y="550" as="targetPoint" />
            <Array as="points">
              <mxPoint x="-690" y="620" />
            </Array>
            <mxPoint x="-580" y="630" as="sourcePoint" />
            <mxPoint as="offset" />
          </mxGeometry>
        </mxCell>
      </root>
    </mxGraphModel>
  </diagram>
</mxfile>
